<svg width="247" height="170" viewBox="0 0 247 170" fill="none" xmlns="http://www.w3.org/2000/svg">
<rect y="69" width="125" height="2" fill="#FFD8D8"/>
<circle cx="123.5" cy="69.5" r="29" fill="#FFECEC" stroke="#FFD8D8"/>
<path fill-rule="evenodd" clip-rule="evenodd" d="M123 80C116.925 80 112 75.0751 112 69C112 62.9249 116.925 58 123 58C129.075 58 134 62.9249 134 69C134 75.0751 129.075 80 123 80ZM123 78C127.971 78 132 73.9706 132 69C132 64.0294 127.971 60 123 60C118.029 60 114 64.0294 114 69C114 73.9706 118.029 78 123 78ZM126.293 65.2929L122 69.5858L119.707 67.2929L118.293 68.7071L122 72.4142L127.707 66.7071L126.293 65.2929Z" fill="#FFD8D8"/>
</svg>
