<svg width="247" height="170" viewBox="0 0 247 170" fill="none" xmlns="http://www.w3.org/2000/svg">
<path d="M247 69H145V71H247V69Z" fill="#FFD8D8"/>
<g filter="url(#filter0_d)">
<path d="M123.5 99C139.792 99 153 85.7924 153 69.5C153 53.2076 139.792 40 123.5 40C107.208 40 94 53.2076 94 69.5C94 85.7924 107.208 99 123.5 99Z" fill="white"/>
</g>
<path fill-rule="evenodd" clip-rule="evenodd" d="M118.034 63C118.328 60.8152 120.511 59 123 59C125.489 59 127.672 60.8152 127.966 63H130.847C131.952 63 132.847 63.8954 132.847 65C132.847 65.0946 132.84 65.1892 132.827 65.2828L131.113 77.2828C130.972 78.2681 130.128 79 129.133 79H116.867C115.872 79 115.028 78.2681 114.887 77.2828L113.173 65.2828C113.017 64.1894 113.777 63.1763 114.87 63.0201C114.964 63.0067 115.058 63 115.153 63H118.034ZM125.928 63C125.624 61.9381 124.398 61 123 61C121.602 61 120.376 61.9381 120.072 63H125.928ZM115.153 65H118V67H120V65H126V67H128V65H130.847L129.133 77H116.867L115.153 65Z" fill="#EC5457"/>
<circle cx="123.5" cy="69.5" r="29.5" fill="#EC5457"/>
<path fill-rule="evenodd" clip-rule="evenodd" d="M118.034 63C118.328 60.8152 120.511 59 123 59C125.489 59 127.672 60.8152 127.966 63H130.847C131.952 63 132.847 63.8954 132.847 65C132.847 65.0946 132.84 65.1892 132.827 65.2828L131.113 77.2828C130.972 78.2681 130.128 79 129.133 79H116.867C115.872 79 115.028 78.2681 114.887 77.2828L113.173 65.2828C113.017 64.1894 113.777 63.1763 114.87 63.0201C114.964 63.0067 115.058 63 115.153 63H118.034ZM125.928 63C125.624 61.9381 124.398 61 123 61C121.602 61 120.376 61.9381 120.072 63H125.928ZM115.153 65H118V67H120V65H126V67H128V65H130.847L129.133 77H116.867L115.153 65Z" fill="white"/>
<defs>
<filter id="filter0_d" x="86" y="34" width="75" height="75" filterUnits="userSpaceOnUse" color-interpolation-filters="sRGB">
<feFlood flood-opacity="0" result="BackgroundImageFix"/>
<feColorMatrix in="SourceAlpha" type="matrix" values="0 0 0 0 0 0 0 0 0 0 0 0 0 0 0 0 0 0 127 0"/>
<feOffset dy="2"/>
<feGaussianBlur stdDeviation="4"/>
<feColorMatrix type="matrix" values="0 0 0 0 0 0 0 0 0 0 0 0 0 0 0 0 0 0 0.05 0"/>
<feBlend mode="normal" in2="BackgroundImageFix" result="effect1_dropShadow"/>
<feBlend mode="normal" in="SourceGraphic" in2="effect1_dropShadow" result="shape"/>
</filter>
</defs>
</svg>
