<svg width="17" height="19" viewBox="0 0 17 19" fill="none" xmlns="http://www.w3.org/2000/svg">
<path fill-rule="evenodd" clip-rule="evenodd" d="M5.95 0H11.05C11.9889 0 12.75 0.761116 12.75 1.7V2.55001H15.3C16.2389 2.55001 17 3.31112 17 4.25001V5.95001C17 6.88889 16.2389 7.65001 15.3 7.65001H15.2319L14.45 17C14.45 17.9389 13.6889 18.7 12.75 18.7H4.25C3.31112 18.7 2.55 17.9389 2.55294 17.0706L1.76789 7.65001H1.7C0.761116 7.65001 0 6.88889 0 5.95001V4.25001C0 3.31112 0.761116 2.55001 1.7 2.55001H4.25V1.7C4.25 0.761116 5.01112 0 5.95 0ZM13.5262 7.65L12.7529 16.9294L12.75 17H4.25L3.47352 7.65H13.5262ZM1.7 5.95V4.25H15.3V5.95H1.7ZM11.05 1.69999V2.54999H5.95V1.69999H11.05ZM5.34895 9.95103L6.55104 8.74895L8.5 10.6979L10.449 8.74895L11.651 9.95103L9.70208 11.9L11.651 13.8489L10.449 15.051L8.5 13.1021L6.55104 15.051L5.34895 13.8489L7.29791 11.9L5.34895 9.95103Z" fill="#DCDCDC"/>
</svg>
