<svg width="177" height="24" viewBox="0 0 177 24" fill="none" xmlns="http://www.w3.org/2000/svg">
<path d="M41.4315 3.64274C42.1368 3.64274 42.8213 3.76028 43.485 3.99536C44.1626 4.23044 44.771 4.57614 45.3103 5.03247C45.8496 5.4888 46.2783 6.04192 46.5963 6.69184C46.9282 7.34177 47.0942 8.07466 47.0942 8.89052C47.0942 9.95528 46.8453 10.8749 46.3474 11.6492C45.8496 12.4098 45.1997 12.9906 44.3977 13.3916C43.5956 13.7926 42.7452 13.9931 41.8464 13.9931C41.3209 13.9931 40.8508 13.9447 40.4359 13.8479C40.0211 13.7373 39.6615 13.599 39.3573 13.4331V17.54H35.4785V3.64274H41.4315ZM39.3573 7.27263V10.4877C39.5924 10.5706 39.8413 10.6398 40.104 10.6951C40.3806 10.7504 40.671 10.7781 40.9752 10.7781C41.5837 10.7781 42.0884 10.5914 42.4894 10.218C42.9042 9.83083 43.1117 9.38833 43.1117 8.89052C43.1117 8.32356 42.9042 7.91563 42.4894 7.66673C42.0884 7.40399 41.5837 7.27263 40.9752 7.27263H39.3573ZM53.3201 6.65036C54.3158 6.65036 55.2008 6.87161 55.9751 7.31411C56.7495 7.75661 57.351 8.37888 57.7797 9.18091C58.2222 9.96911 58.4435 10.9094 58.4435 12.0018V13.2256H51.2459C51.398 13.7373 51.7022 14.1175 52.1586 14.3665C52.6149 14.6154 53.1404 14.7398 53.735 14.7398C54.537 14.7398 55.2284 14.6292 55.8092 14.4079C56.4038 14.1729 56.8463 13.9724 57.1367 13.8064V16.8555C56.7772 17.0768 56.2794 17.298 55.6433 17.5193C55.021 17.7405 54.3158 17.8511 53.5276 17.8511C52.7808 17.8511 52.0549 17.7267 51.3496 17.4778C50.6582 17.2289 50.036 16.8693 49.4828 16.3992C48.9297 15.929 48.4941 15.3621 48.1761 14.6983C47.858 14.0208 47.699 13.2602 47.699 12.4167C47.699 11.3658 47.941 10.4047 48.425 9.53352C48.9228 8.66235 49.5935 7.96403 50.437 7.43856C51.2943 6.91309 52.2554 6.65036 53.3201 6.65036ZM53.2164 9.59575C52.7601 9.59575 52.366 9.7202 52.0341 9.96911C51.7022 10.2042 51.4603 10.5706 51.3081 11.0684H55.0625C55.0625 10.5706 54.8689 10.2042 54.4817 9.96911C54.1083 9.7202 53.6866 9.59575 53.2164 9.59575ZM66.8888 10.8818C66.6814 10.7711 66.4602 10.6882 66.2251 10.6329C66.0038 10.5637 65.7411 10.5291 65.4369 10.5291C64.9529 10.5291 64.5242 10.6743 64.1509 10.9647C63.7775 11.2551 63.4733 11.6354 63.2382 12.1056V17.54H59.6706V6.96149H63.2382V8.84903C63.5701 8.28208 63.9365 7.79118 64.3376 7.37634C64.7524 6.96149 65.2917 6.75407 65.9554 6.75407C66.315 6.75407 66.6261 6.8163 66.8888 6.94075V10.8818ZM74.9401 6.96149V9.76169H72.534V17.54H68.9664V9.76169H67.39V6.96149H68.9664V6.4222C68.9664 5.62016 69.1461 4.91493 69.5057 4.30649C69.8652 3.68423 70.3561 3.19333 70.9784 2.8338C71.6006 2.47427 72.3059 2.2945 73.0941 2.2945C73.6195 2.2945 74.069 2.3429 74.4423 2.4397C74.8295 2.53649 75.1614 2.66095 75.4379 2.81306V5.71696C75.0093 5.48188 74.4907 5.36434 73.8823 5.36434C73.5642 5.36434 73.26 5.46806 72.9696 5.67548C72.6792 5.86907 72.534 6.16638 72.534 6.56739V6.96149H74.9401ZM86.2687 6.96149V13.3086C86.2687 14.2627 86.0474 15.0786 85.6049 15.7562C85.1763 16.4338 84.5817 16.9523 83.8211 17.3118C83.0606 17.6714 82.1894 17.8511 81.2076 17.8511C80.2258 17.8511 79.3546 17.6714 78.5941 17.3118C77.8335 16.9523 77.232 16.4338 76.7895 15.7562C76.3608 15.0786 76.1465 14.2627 76.1465 13.3086V6.96149H79.7142L79.7349 12.3545C79.7349 13.0735 79.8455 13.599 80.0668 13.9309C80.3018 14.2627 80.6821 14.4287 81.2076 14.4287C81.7331 14.4287 82.1064 14.2627 82.3277 13.9309C82.5627 13.599 82.6803 13.0735 82.6803 12.3545L82.701 6.96149H86.2687ZM91.8931 6.96149V8.33048C92.225 7.87415 92.5776 7.48005 92.951 7.14817C93.3243 6.8163 93.8636 6.65036 94.5689 6.65036C95.2741 6.65036 95.9033 6.8163 96.4564 7.14817C97.0095 7.46622 97.4451 7.94329 97.7632 8.57938C98.0951 8.02626 98.5306 7.56993 99.0699 7.2104C99.6231 6.83704 100.238 6.65036 100.916 6.65036C101.995 6.65036 102.873 7.01681 103.55 7.7497C104.242 8.48259 104.587 9.56809 104.587 11.0062V17.54H101.02L100.999 11.5663C100.999 11.0408 100.861 10.6743 100.584 10.4669C100.321 10.2457 100.01 10.135 99.6507 10.135C99.3327 10.135 99.0561 10.2318 98.821 10.4254C98.5998 10.619 98.4062 10.8403 98.2402 11.0892V17.54H94.6726L94.6518 11.5663C94.6518 11.0408 94.5136 10.6743 94.237 10.4669C93.9743 10.2457 93.6631 10.135 93.3036 10.135C92.9856 10.135 92.7159 10.2388 92.4947 10.4462C92.2872 10.6398 92.0867 10.8749 91.8931 11.1514V17.54H88.3255V6.96149H91.8931ZM111.539 6.65036C112.535 6.65036 113.42 6.87161 114.194 7.31411C114.969 7.75661 115.57 8.37888 115.999 9.18091C116.441 9.96911 116.663 10.9094 116.663 12.0018V13.2256H109.465C109.617 13.7373 109.921 14.1175 110.378 14.3665C110.834 14.6154 111.36 14.7398 111.954 14.7398C112.756 14.7398 113.448 14.6292 114.028 14.4079C114.623 14.1729 115.065 13.9724 115.356 13.8064V16.8555C114.996 17.0768 114.499 17.298 113.862 17.5193C113.24 17.7405 112.535 17.8511 111.747 17.8511C111 17.8511 110.274 17.7267 109.569 17.4778C108.877 17.2289 108.255 16.8693 107.702 16.3992C107.149 15.929 106.713 15.3621 106.395 14.6983C106.077 14.0208 105.918 13.2602 105.918 12.4167C105.918 11.3658 106.16 10.4047 106.644 9.53352C107.142 8.66235 107.813 7.96403 108.656 7.43856C109.513 6.91309 110.475 6.65036 111.539 6.65036ZM111.436 9.59575C110.979 9.59575 110.585 9.7202 110.253 9.96911C109.921 10.2042 109.679 10.5706 109.527 11.0684H113.282C113.282 10.5706 113.088 10.2042 112.701 9.96911C112.328 9.7202 111.906 9.59575 111.436 9.59575ZM122.08 3.43532C122.896 3.43532 123.566 3.55286 124.092 3.78794C124.631 4.02302 125.101 4.27192 125.502 4.53466V6.46368C125.115 6.17329 124.645 5.90364 124.092 5.65474C123.539 5.392 122.937 5.26063 122.287 5.26063C121.872 5.26063 121.437 5.33669 120.98 5.4888C120.538 5.62708 120.164 5.85524 119.86 6.17329C119.556 6.49134 119.404 6.89927 119.404 7.39708C119.404 7.9502 119.604 8.37196 120.005 8.66235C120.406 8.95274 120.89 9.22931 121.457 9.49204L123.366 10.3632C124.32 10.7919 125.039 11.269 125.523 11.7944C126.007 12.3199 126.249 13.0182 126.249 13.8894C126.249 14.6499 126.028 15.3206 125.585 15.9014C125.143 16.4683 124.562 16.9177 123.843 17.2496C123.124 17.5815 122.335 17.7474 121.478 17.7474C120.676 17.7474 119.936 17.6091 119.259 17.3326C118.581 17.056 117.993 16.7449 117.496 16.3992V14.4702C118.035 14.8435 118.65 15.1823 119.342 15.4865C120.047 15.7769 120.842 15.9221 121.727 15.9221C122.418 15.9221 123.027 15.7493 123.552 15.4036C124.078 15.0579 124.341 14.5808 124.341 13.9724C124.341 13.6266 124.23 13.3293 124.009 13.0804C123.801 12.8315 123.545 12.6172 123.241 12.4374C122.937 12.2577 122.64 12.1056 122.349 11.9811L120.047 10.944C119.051 10.5015 118.374 9.98294 118.014 9.38833C117.655 8.79372 117.475 8.10923 117.475 7.33485C117.475 6.60196 117.682 5.94513 118.097 5.36434C118.526 4.76974 119.093 4.29958 119.798 3.95388C120.503 3.60817 121.264 3.43532 122.08 3.43532ZM131.168 4.18204V7.16891H134.196V8.76606H131.168V14.8435C131.168 15.2722 131.279 15.611 131.5 15.8599C131.721 16.1088 132.06 16.2333 132.516 16.2333C132.931 16.2333 133.277 16.1849 133.553 16.0881C133.83 15.9774 134.072 15.8599 134.279 15.7354V17.1252C134.003 17.3464 133.706 17.5193 133.387 17.6437C133.083 17.782 132.668 17.8511 132.143 17.8511C131.258 17.8511 130.587 17.5884 130.131 17.0629C129.688 16.5236 129.467 15.8115 129.467 14.9265V8.76606H127.476V8.26825C128.154 7.96403 128.72 7.46622 129.177 6.77481C129.633 6.06958 130.034 5.20532 130.38 4.18204H131.168ZM141.231 6.96149C142.282 6.96149 143.216 7.2104 144.032 7.70821C144.847 8.20602 145.483 8.86977 145.94 9.69946C146.41 10.5291 146.645 11.4349 146.645 12.4167C146.645 13.3985 146.41 14.3042 145.94 15.1339C145.483 15.9498 144.847 16.6066 144.032 17.1044C143.216 17.6022 142.282 17.8511 141.231 17.8511C140.18 17.8511 139.247 17.6022 138.431 17.1044C137.615 16.6066 136.972 15.9498 136.502 15.1339C136.046 14.3042 135.818 13.3985 135.818 12.4167C135.818 11.4349 136.046 10.5291 136.502 9.69946C136.972 8.86977 137.615 8.20602 138.431 7.70821C139.247 7.2104 140.18 6.96149 141.231 6.96149ZM141.231 8.62087C140.498 8.62087 139.855 8.80063 139.302 9.16016C138.749 9.50587 138.321 9.96911 138.016 10.5499C137.726 11.1168 137.581 11.7391 137.581 12.4167C137.581 13.0804 137.726 13.7027 138.016 14.2835C138.321 14.8504 138.749 15.3137 139.302 15.6732C139.855 16.0189 140.498 16.1918 141.231 16.1918C141.978 16.1918 142.621 16.0189 143.16 15.6732C143.713 15.3137 144.135 14.8504 144.426 14.2835C144.73 13.7027 144.882 13.0804 144.882 12.4167C144.882 11.7391 144.73 11.1168 144.426 10.5499C144.135 9.96911 143.713 9.50587 143.16 9.16016C142.621 8.80063 141.978 8.62087 141.231 8.62087ZM150.403 7.16891V9.24313C150.804 8.55173 151.288 7.9986 151.855 7.58376C152.422 7.16891 153.002 6.96149 153.597 6.96149C153.998 6.96149 154.358 7.03063 154.676 7.16891V9.13942C154.233 8.87669 153.791 8.74532 153.348 8.74532C152.643 8.74532 152.069 8.99423 151.626 9.49204C151.198 9.98985 150.79 10.5845 150.403 11.2759V17.54H148.702V7.16891H150.403ZM160.383 6.96149C161.448 6.96149 162.333 7.18274 163.038 7.62524C163.743 8.06774 164.269 8.66927 164.614 9.42981C164.974 10.1904 165.154 11.0477 165.154 12.0018V13.0182H157.189C157.272 13.599 157.472 14.1314 157.79 14.6154C158.108 15.0993 158.523 15.4865 159.035 15.7769C159.546 16.0535 160.134 16.1918 160.798 16.1918C161.545 16.1918 162.243 16.0051 162.893 15.6317C163.543 15.2445 164.089 14.8228 164.531 14.3665L164.511 16.2125C164.317 16.4476 164.027 16.6965 163.64 16.9592C163.266 17.2081 162.831 17.4156 162.333 17.5815C161.849 17.7613 161.337 17.8511 160.798 17.8511C159.747 17.8511 158.814 17.6022 157.998 17.1044C157.182 16.6066 156.539 15.9498 156.069 15.1339C155.612 14.3042 155.384 13.3985 155.384 12.4167C155.384 11.4349 155.598 10.5291 156.027 9.69946C156.456 8.86977 157.044 8.20602 157.79 7.70821C158.551 7.2104 159.415 6.96149 160.383 6.96149ZM160.383 8.62087C159.526 8.62087 158.82 8.91126 158.267 9.49204C157.714 10.059 157.368 10.7504 157.23 11.5663H163.474C163.404 10.8887 163.211 10.3356 162.893 9.90688C162.589 9.47821 162.215 9.16016 161.773 8.95274C161.33 8.73149 160.867 8.62087 160.383 8.62087Z" fill="#EC5457"/>
<g clip-path="url(#clip0)">
<path d="M19.6403 3.36971C17.4672 1.19674 14.5781 0 11.505 0C8.43191 0 5.54276 1.19674 3.36971 3.36971C1.19674 5.54276 0 8.43191 0 11.505C0 14.5781 1.19674 17.4672 3.36971 19.6403C5.54276 21.8133 8.43191 23.01 11.505 23.01C14.5781 23.01 17.4672 21.8133 19.6403 19.6403C21.8133 17.4672 23.01 14.5781 23.01 11.505C23.01 8.43191 21.8133 5.54276 19.6403 3.36971V3.36971ZM5.37077 19.5945H17.6392C15.9337 20.891 13.8078 21.6618 11.505 21.6618C9.2022 21.6618 7.07634 20.891 5.37077 19.5945ZM19.095 18.2462H3.91498C2.31925 16.4515 1.34824 14.0898 1.34824 11.505C1.34824 5.90454 5.90454 1.34824 11.505 1.34824C17.1055 1.34824 21.6618 5.90454 21.6618 11.505C21.6618 14.0898 20.6908 16.4515 19.095 18.2462Z" fill="#EC5457"/>
<path d="M15.787 9.61166C15.4153 9.61166 15.0532 9.6535 14.705 9.73228C14.6619 7.69639 13.7339 5.90224 11.9817 4.49755L11.56 4.15945L11.1383 4.49755C9.3892 5.89977 8.46129 7.6901 8.41523 9.72163C8.08621 9.64981 7.74502 9.6117 7.39515 9.6117H3.52551V11.3228C3.52551 14.0252 5.69627 16.2238 8.36444 16.2238H14.6935C17.3959 16.2238 19.5945 14.0252 19.5945 11.3227V9.61166H15.787ZM11.56 5.9132C12.8569 7.11997 13.4565 8.57994 13.3466 10.2636C12.6112 10.6876 11.9959 11.2971 11.5644 12.0276C11.132 11.2864 10.5127 10.6699 9.7725 10.2452C9.66806 8.56933 10.2678 7.11557 11.56 5.9132V5.9132ZM10.8859 14.8756H8.36449C6.43974 14.8756 4.8738 13.2818 4.8738 11.3227V10.9599H7.39524C9.32003 10.9599 10.886 12.5537 10.886 14.5127V14.8756H10.8859ZM18.2463 11.3227C18.2463 13.2818 16.6525 14.8756 14.6935 14.8756H12.2341V14.5127C12.2341 12.5537 13.8279 10.9599 15.787 10.9599H18.2463V11.3227Z" fill="#EC5457"/>
</g>
<defs>
<clipPath id="clip0">
<rect width="23.01" height="23.01" fill="white"/>
</clipPath>
</defs>
</svg>
